<mxfile host="65bd71144e">
    <diagram id="x3e4RKLPkhsfTVBswjm0" name="Page-1">
        <mxGraphModel dx="2114" dy="1198" grid="1" gridSize="10" guides="1" tooltips="1" connect="1" arrows="1" fold="1" page="1" pageScale="1" pageWidth="1920" pageHeight="1200" math="0" shadow="0">
            <root>
                <mxCell id="0"/>
                <mxCell id="1" style="locked=1;" parent="0"/>
                <mxCell id="2" value="Frames" style="" parent="0"/>
                <mxCell id="3" value="Regiment: Présélection Simple" style="shape=umlFrame;whiteSpace=wrap;html=1;width=400;height=40;boundedLbl=1;verticalAlign=middle;align=center;spacingLeft=5;fontFamily=Times New Roman;fontSize=24;fontStyle=1;fillColor=#f5f5f5;fontColor=#333333;strokeColor=#000000;" parent="2" vertex="1">
                    <mxGeometry x="70" y="40" width="1020" height="290" as="geometry"/>
                </mxCell>
                <mxCell id="31" value="Regiment: Présélection Multiple" style="shape=umlFrame;whiteSpace=wrap;html=1;width=400;height=40;boundedLbl=1;verticalAlign=middle;align=center;spacingLeft=5;fontFamily=Times New Roman;fontSize=24;fontStyle=1;fillColor=#f5f5f5;fontColor=#333333;strokeColor=#000000;" vertex="1" parent="2">
                    <mxGeometry x="80" y="400" width="1360" height="590" as="geometry"/>
                </mxCell>
                <mxCell id="4" value="LigneDeVies" style="" parent="0"/>
                <mxCell id="10" value="" style="edgeStyle=none;html=1;fontFamily=Times New Roman;fontSize=24;" edge="1" parent="4" source="8" target="9">
                    <mxGeometry relative="1" as="geometry"/>
                </mxCell>
                <mxCell id="8" value="Mouse Move" style="html=1;dashed=0;whitespace=wrap;shape=mxgraph.dfd.start;strokeColor=#000000;fillColor=#f5f5f5;fontColor=#333333;fontSize=20;fontFamily=Times New Roman;" vertex="1" parent="4">
                    <mxGeometry x="80" y="120" width="160" height="60" as="geometry"/>
                </mxCell>
                <mxCell id="13" value="" style="edgeStyle=none;html=1;fontFamily=Times New Roman;fontSize=20;" edge="1" parent="4" source="9" target="12">
                    <mxGeometry relative="1" as="geometry"/>
                </mxCell>
                <mxCell id="22" value="Yes" style="edgeLabel;html=1;align=center;verticalAlign=middle;resizable=0;points=[];fontSize=20;fontFamily=Times New Roman;" vertex="1" connectable="0" parent="13">
                    <mxGeometry x="-0.44" y="2" relative="1" as="geometry">
                        <mxPoint x="18" y="2" as="offset"/>
                    </mxGeometry>
                </mxCell>
                <mxCell id="19" value="No" style="edgeStyle=orthogonalEdgeStyle;html=1;fontFamily=Times New Roman;fontSize=20;rounded=0;" edge="1" parent="4" source="9" target="23">
                    <mxGeometry x="-0.2" relative="1" as="geometry">
                        <mxPoint x="360" y="270" as="targetPoint"/>
                        <Array as="points">
                            <mxPoint x="360" y="290"/>
                        </Array>
                        <mxPoint as="offset"/>
                    </mxGeometry>
                </mxCell>
                <mxCell id="9" value="Hover Unit?" style="rhombus;whiteSpace=wrap;html=1;fontSize=20;fontFamily=Times New Roman;fillColor=#f5f5f5;strokeColor=#000000;fontColor=#333333;dashed=0;" vertex="1" parent="4">
                    <mxGeometry x="280" y="90" width="160" height="120" as="geometry"/>
                </mxCell>
                <mxCell id="15" value="" style="edgeStyle=none;html=1;fontFamily=Times New Roman;fontSize=20;" edge="1" parent="4" source="12" target="16">
                    <mxGeometry relative="1" as="geometry">
                        <mxPoint x="380" y="410" as="targetPoint"/>
                    </mxGeometry>
                </mxCell>
                <mxCell id="12" value="Get &lt;br&gt;Regiment" style="whiteSpace=wrap;html=1;fontSize=20;fontFamily=Times New Roman;fillColor=#f5f5f5;strokeColor=#000000;fontColor=#333333;dashed=0;" vertex="1" parent="4">
                    <mxGeometry x="520" y="120" width="120" height="60" as="geometry"/>
                </mxCell>
                <mxCell id="20" style="edgeStyle=orthogonalEdgeStyle;html=1;fontFamily=Times New Roman;fontSize=20;rounded=0;" edge="1" parent="4" source="16" target="23">
                    <mxGeometry relative="1" as="geometry">
                        <mxPoint x="440" y="300" as="targetPoint"/>
                        <Array as="points">
                            <mxPoint x="760" y="290"/>
                        </Array>
                    </mxGeometry>
                </mxCell>
                <mxCell id="21" value="Yes" style="edgeLabel;html=1;align=center;verticalAlign=middle;resizable=0;points=[];fontSize=20;fontFamily=Times New Roman;" vertex="1" connectable="0" parent="20">
                    <mxGeometry x="-0.5789" y="1" relative="1" as="geometry">
                        <mxPoint x="14" y="-61" as="offset"/>
                    </mxGeometry>
                </mxCell>
                <mxCell id="25" value="No" style="edgeStyle=orthogonalEdgeStyle;rounded=0;html=1;fontFamily=Times New Roman;fontSize=20;" edge="1" parent="4" source="16" target="30">
                    <mxGeometry relative="1" as="geometry">
                        <mxPoint x="920" y="150" as="targetPoint"/>
                        <mxPoint as="offset"/>
                    </mxGeometry>
                </mxCell>
                <mxCell id="16" value="Regiment&lt;br&gt;Preselected?" style="rhombus;whiteSpace=wrap;html=1;fontSize=20;fontFamily=Times New Roman;fillColor=#f5f5f5;strokeColor=#000000;fontColor=#333333;dashed=0;verticalAlign=middle;spacing=0;" vertex="1" parent="4">
                    <mxGeometry x="680" y="90" width="160" height="120" as="geometry"/>
                </mxCell>
                <mxCell id="23" value="" style="ellipse;html=1;shape=endState;fillColor=#000000;strokeColor=#000000;fontFamily=Times New Roman;fontSize=20;" vertex="1" parent="4">
                    <mxGeometry x="330" y="260" width="60" height="60" as="geometry"/>
                </mxCell>
                <mxCell id="30" value="&lt;span&gt;Preselect &lt;br&gt;Regiment&lt;/span&gt;" style="html=1;dashed=0;whitespace=wrap;shape=mxgraph.dfd.start;strokeColor=#000000;fillColor=#f5f5f5;fontColor=#333333;fontSize=20;fontFamily=Times New Roman;" vertex="1" parent="4">
                    <mxGeometry x="920" y="120" width="160" height="60" as="geometry"/>
                </mxCell>
                <mxCell id="34" value="" style="edgeStyle=orthogonalEdgeStyle;rounded=0;html=1;fontFamily=Times New Roman;fontSize=20;" edge="1" parent="4" source="32" target="33">
                    <mxGeometry relative="1" as="geometry"/>
                </mxCell>
                <mxCell id="32" value="Left Mouse&lt;br&gt;Pressed" style="html=1;dashed=0;whitespace=wrap;shape=mxgraph.dfd.start;strokeColor=#000000;fillColor=#f5f5f5;fontColor=#333333;fontSize=20;fontFamily=Times New Roman;" vertex="1" parent="4">
                    <mxGeometry x="120" y="530" width="160" height="60" as="geometry"/>
                </mxCell>
                <mxCell id="36" value="No" style="edgeStyle=orthogonalEdgeStyle;rounded=0;html=1;fontFamily=Times New Roman;fontSize=20;" edge="1" parent="4" source="33" target="35">
                    <mxGeometry relative="1" as="geometry"/>
                </mxCell>
                <mxCell id="38" value="" style="edgeStyle=orthogonalEdgeStyle;rounded=0;html=1;fontFamily=Times New Roman;fontSize=20;" edge="1" parent="4" source="33" target="37">
                    <mxGeometry relative="1" as="geometry"/>
                </mxCell>
                <mxCell id="33" value="Mouse&lt;br&gt;Move?" style="rhombus;whiteSpace=wrap;html=1;fontSize=20;fontFamily=Times New Roman;fillColor=#f5f5f5;strokeColor=#000000;fontColor=#333333;dashed=0;" vertex="1" parent="4">
                    <mxGeometry x="320" y="500" width="160" height="120" as="geometry"/>
                </mxCell>
                <mxCell id="35" value="" style="ellipse;html=1;shape=endState;fillColor=#000000;strokeColor=#000000;fontFamily=Times New Roman;fontSize=20;" vertex="1" parent="4">
                    <mxGeometry x="370" y="690" width="60" height="60" as="geometry"/>
                </mxCell>
                <mxCell id="63" style="edgeStyle=orthogonalEdgeStyle;rounded=0;html=1;fontFamily=Times New Roman;fontSize=20;" edge="1" parent="4" source="37" target="61">
                    <mxGeometry relative="1" as="geometry"/>
                </mxCell>
                <mxCell id="37" value="On Screen:&lt;br&gt;Draw Rectangle" style="shape=process;whiteSpace=wrap;html=1;backgroundOutline=1;fontFamily=Times New Roman;fontSize=20;strokeColor=#000000;fillColor=#f5f5f5;fontColor=#333333;" vertex="1" parent="4">
                    <mxGeometry x="520" y="530" width="170" height="60" as="geometry"/>
                </mxCell>
                <mxCell id="41" value="&amp;lt;Foreach Regiments&amp;gt;" style="dashed=1;rounded=1;absoluteArcSize=1;arcSize=20;html=1;verticalAlign=top;align=left;spacingTop=5;spacingLeft=10;fontFamily=Times New Roman;fontSize=20;fillColor=none;" vertex="1" parent="4">
                    <mxGeometry x="760" y="420" width="560" height="550" as="geometry"/>
                </mxCell>
                <mxCell id="45" value="Foreach Units" style="shape=umlFrame;tabWidth=110;tabHeight=30;tabPosition=left;html=1;boundedLbl=1;labelInHeader=1;width=200;height=40;fontFamily=Times New Roman;fontSize=20;strokeColor=#000000;fillColor=#f5f5f5;fontColor=#333333;" vertex="1" parent="4">
                    <mxGeometry x="1580" y="480" width="280" height="300" as="geometry"/>
                </mxCell>
                <mxCell id="46" value="[For]" style="text;fontFamily=Times New Roman;fontSize=20;strokeColor=none;verticalAlign=middle;" vertex="1" parent="45">
                    <mxGeometry width="100" height="30" relative="1" as="geometry">
                        <mxPoint x="10" y="50" as="offset"/>
                    </mxGeometry>
                </mxCell>
                <mxCell id="47" value="[Do]" style="line;strokeWidth=1;dashed=1;labelPosition=center;verticalLabelPosition=bottom;align=left;verticalAlign=top;spacingLeft=20;spacingTop=15;fontFamily=Times New Roman;fontSize=20;" vertex="1" parent="45">
                    <mxGeometry y="144.00252525252526" width="280" height="12" as="geometry"/>
                </mxCell>
                <mxCell id="55" value="Get Regiment" style="html=1;align=center;verticalAlign=top;rounded=1;absoluteArcSize=1;arcSize=10;dashed=0;fontFamily=Times New Roman;fontSize=20;strokeColor=#666666;fillColor=#f5f5f5;fontColor=#333333;" vertex="1" parent="4">
                    <mxGeometry x="1540" y="240" width="140" height="40" as="geometry"/>
                </mxCell>
                <mxCell id="56" value="Get &lt;br&gt;Regiment" style="whiteSpace=wrap;html=1;fontSize=20;fontFamily=Times New Roman;fillColor=#f5f5f5;strokeColor=#000000;fontColor=#333333;dashed=0;" vertex="1" parent="4">
                    <mxGeometry x="1700" y="330" width="120" height="60" as="geometry"/>
                </mxCell>
                <mxCell id="58" value="Get &lt;br&gt;Regiment" style="whiteSpace=wrap;html=1;fontSize=20;fontFamily=Times New Roman;fillColor=#f5f5f5;strokeColor=#000000;fontColor=#333333;dashed=0;" vertex="1" parent="4">
                    <mxGeometry x="1190" y="220" width="120" height="60" as="geometry"/>
                </mxCell>
                <mxCell id="66" value="Yes" style="edgeStyle=orthogonalEdgeStyle;rounded=0;html=1;fontFamily=Times New Roman;fontSize=20;" edge="1" parent="4" source="59" target="61">
                    <mxGeometry relative="1" as="geometry">
                        <mxPoint x="950" y="790" as="targetPoint"/>
                        <Array as="points">
                            <mxPoint x="940" y="470"/>
                            <mxPoint x="760" y="470"/>
                        </Array>
                    </mxGeometry>
                </mxCell>
                <mxCell id="69" value="No" style="edgeStyle=orthogonalEdgeStyle;rounded=0;html=1;fontFamily=Times New Roman;fontSize=20;" edge="1" parent="4" source="59" target="68">
                    <mxGeometry x="-0.1628" relative="1" as="geometry">
                        <mxPoint as="offset"/>
                    </mxGeometry>
                </mxCell>
                <mxCell id="59" value="Is Preselected?" style="rhombus;whiteSpace=wrap;html=1;fontSize=20;fontFamily=Times New Roman;fillColor=#f5f5f5;strokeColor=#000000;fontColor=#333333;dashed=0;" vertex="1" parent="4">
                    <mxGeometry x="860" y="490" width="160" height="140" as="geometry"/>
                </mxCell>
                <mxCell id="60" value="&amp;lt;Foreach Units&amp;gt;" style="dashed=1;rounded=1;absoluteArcSize=1;arcSize=20;html=1;verticalAlign=top;align=left;spacingTop=5;spacingLeft=24;fontFamily=Times New Roman;fontSize=20;fillColor=none;" vertex="1" parent="4">
                    <mxGeometry x="760" y="690" width="560" height="280" as="geometry"/>
                </mxCell>
                <mxCell id="64" style="edgeStyle=orthogonalEdgeStyle;rounded=0;html=1;fontFamily=Times New Roman;fontSize=20;" edge="1" parent="4" source="61" target="59">
                    <mxGeometry relative="1" as="geometry"/>
                </mxCell>
                <mxCell id="61" value="" style="fontStyle=0;labelPosition=right;verticalLabelPosition=middle;align=left;verticalAlign=middle;spacingLeft=2;fontFamily=Times New Roman;fontSize=20;strokeColor=#000000;fillColor=#eeeeee;" vertex="1" parent="4">
                    <mxGeometry x="745" y="545" width="30" height="30" as="geometry"/>
                </mxCell>
                <mxCell id="91" value="" style="edgeStyle=orthogonalEdgeStyle;rounded=0;html=1;fontFamily=Times New Roman;fontSize=20;" edge="1" parent="4" source="68" target="70">
                    <mxGeometry relative="1" as="geometry"/>
                </mxCell>
                <mxCell id="68" value="" style="fontStyle=0;labelPosition=right;verticalLabelPosition=middle;align=left;verticalAlign=middle;spacingLeft=2;fontFamily=Times New Roman;fontSize=20;strokeColor=#000000;fillColor=#eeeeee;" vertex="1" parent="4">
                    <mxGeometry x="925" y="680" width="30" height="30" as="geometry"/>
                </mxCell>
                <mxCell id="95" value="Yes" style="edgeStyle=orthogonalEdgeStyle;rounded=0;html=1;fontFamily=Times New Roman;fontSize=20;" edge="1" parent="4" source="70" target="85">
                    <mxGeometry relative="1" as="geometry"/>
                </mxCell>
                <mxCell id="103" value="No" style="edgeStyle=orthogonalEdgeStyle;rounded=0;html=1;fontFamily=Times New Roman;fontSize=20;" edge="1" parent="4" source="70" target="79">
                    <mxGeometry relative="1" as="geometry"/>
                </mxCell>
                <mxCell id="70" value="Unit inside&lt;br&gt;Rectangle?" style="rhombus;whiteSpace=wrap;html=1;fontSize=20;fontFamily=Times New Roman;fillColor=#f5f5f5;strokeColor=#000000;fontColor=#333333;dashed=0;" vertex="1" parent="4">
                    <mxGeometry x="871.4300000000001" y="740" width="137.14" height="120" as="geometry"/>
                </mxCell>
                <mxCell id="108" style="edgeStyle=orthogonalEdgeStyle;rounded=0;html=1;fontFamily=Times New Roman;fontSize=20;" edge="1" parent="4" source="74" target="107">
                    <mxGeometry relative="1" as="geometry"/>
                </mxCell>
                <mxCell id="74" value="" style="fontStyle=0;labelPosition=right;verticalLabelPosition=middle;align=left;verticalAlign=middle;spacingLeft=2;fontFamily=Times New Roman;fontSize=20;strokeColor=#000000;fillColor=#eeeeee;" vertex="1" parent="4">
                    <mxGeometry x="1189.28" y="680" width="30" height="30" as="geometry"/>
                </mxCell>
                <mxCell id="76" value="&lt;span&gt;Preselect &lt;br&gt;Regiment&lt;/span&gt;" style="html=1;dashed=0;whitespace=wrap;shape=mxgraph.dfd.start;strokeColor=#000000;fillColor=#f5f5f5;fontColor=#333333;fontSize=20;fontFamily=Times New Roman;" vertex="1" parent="4">
                    <mxGeometry x="1500" y="835" width="160" height="60" as="geometry"/>
                </mxCell>
                <mxCell id="104" style="edgeStyle=orthogonalEdgeStyle;rounded=0;html=1;fontFamily=Times New Roman;fontSize=20;" edge="1" parent="4" source="79" target="61">
                    <mxGeometry relative="1" as="geometry"/>
                </mxCell>
                <mxCell id="79" value="" style="rhombus;fontFamily=Times New Roman;fontSize=20;strokeColor=#36393d;fillColor=#eeeeee;" vertex="1" parent="4">
                    <mxGeometry x="925" y="905" width="30" height="30" as="geometry"/>
                </mxCell>
                <mxCell id="100" value="" style="edgeStyle=orthogonalEdgeStyle;rounded=0;html=1;fontFamily=Times New Roman;fontSize=20;" edge="1" parent="4" source="85" target="86">
                    <mxGeometry relative="1" as="geometry"/>
                </mxCell>
                <mxCell id="85" value="Preselect&lt;br&gt;Regiment" style="whiteSpace=wrap;html=1;fontSize=20;fontFamily=Times New Roman;fillColor=#f5f5f5;strokeColor=#000000;fontColor=#333333;dashed=0;" vertex="1" parent="4">
                    <mxGeometry x="1060" y="770" width="120" height="60" as="geometry"/>
                </mxCell>
                <mxCell id="101" value="Yes" style="edgeStyle=orthogonalEdgeStyle;rounded=0;html=1;fontFamily=Times New Roman;fontSize=20;" edge="1" parent="4" source="86" target="74">
                    <mxGeometry relative="1" as="geometry"/>
                </mxCell>
                <mxCell id="102" value="No" style="edgeStyle=orthogonalEdgeStyle;rounded=0;html=1;fontFamily=Times New Roman;fontSize=20;" edge="1" parent="4" source="86" target="79">
                    <mxGeometry relative="1" as="geometry"/>
                </mxCell>
                <mxCell id="86" value="Last&lt;br&gt;Unit?" style="rhombus;whiteSpace=wrap;html=1;fontSize=20;fontFamily=Times New Roman;fillColor=#f5f5f5;strokeColor=#000000;fontColor=#333333;dashed=0;spacingBottom=2;" vertex="1" parent="4">
                    <mxGeometry x="1071.43" y="877.5" width="97.14" height="85" as="geometry"/>
                </mxCell>
                <mxCell id="105" value="" style="ellipse;html=1;shape=endState;fillColor=#000000;strokeColor=#000000;fontFamily=Times New Roman;fontSize=20;" vertex="1" parent="4">
                    <mxGeometry x="1370" y="450" width="60" height="60" as="geometry"/>
                </mxCell>
                <mxCell id="109" value="No" style="edgeStyle=orthogonalEdgeStyle;rounded=0;html=1;fontFamily=Times New Roman;fontSize=20;" edge="1" parent="4" source="107" target="59">
                    <mxGeometry relative="1" as="geometry"/>
                </mxCell>
                <mxCell id="111" value="Yes" style="edgeStyle=orthogonalEdgeStyle;rounded=0;html=1;fontFamily=Times New Roman;fontSize=20;" edge="1" parent="4" source="107" target="110">
                    <mxGeometry relative="1" as="geometry">
                        <Array as="points">
                            <mxPoint x="1204" y="480"/>
                        </Array>
                    </mxGeometry>
                </mxCell>
                <mxCell id="107" value="Last&lt;br&gt;Regiment?" style="rhombus;whiteSpace=wrap;html=1;fontSize=20;fontFamily=Times New Roman;fillColor=#f5f5f5;strokeColor=#000000;fontColor=#333333;dashed=0;spacingBottom=9;" vertex="1" parent="4">
                    <mxGeometry x="1139.99" y="503.75" width="128.57" height="112.5" as="geometry"/>
                </mxCell>
                <mxCell id="112" value="" style="edgeStyle=orthogonalEdgeStyle;rounded=0;html=1;fontFamily=Times New Roman;fontSize=20;" edge="1" parent="4" source="110" target="105">
                    <mxGeometry relative="1" as="geometry"/>
                </mxCell>
                <mxCell id="110" value="" style="fontStyle=0;labelPosition=right;verticalLabelPosition=middle;align=left;verticalAlign=middle;spacingLeft=2;fontFamily=Times New Roman;fontSize=20;strokeColor=#000000;fillColor=#eeeeee;" vertex="1" parent="4">
                    <mxGeometry x="1300" y="465" width="30" height="30" as="geometry"/>
                </mxCell>
            </root>
        </mxGraphModel>
    </diagram>
</mxfile>